<?xml version="1.0" encoding="iso-8859-1"?>
<!-- Generator: Adobe Illustrator 20.0.0, SVG Export Plug-In . SVG Version: 6.00 Build 0)  -->
<svg version="1.1" id="Layer_1_1_" xmlns="http://www.w3.org/2000/svg" xmlns:xlink="http://www.w3.org/1999/xlink" x="0px" y="0px"
	 viewBox="0 0 64 64" style="enable-background:new 0 0 64 64;" xml:space="preserve">
<g id="Guide">
	<g>
	</g>
	<g>
	</g>
	<g>
	</g>
	<g>
	</g>
	<g>
	</g>
	<g>
	</g>
	<g>
	</g>
	<g>
	</g>
	<g>
	</g>
	<g>
	</g>
	<g>
	</g>
	<g>
	</g>
	<g>
	</g>
	<g>
	</g>
	<g>
	</g>
	<g>
	</g>
	<g>
	</g>
	<g>
	</g>
	<g>
	</g>
	<g>
	</g>
	<g>
	</g>
	<g>
	</g>
	<g>
	</g>
	<g>
	</g>
	<g>
	</g>
	<g>
	</g>
	<g>
	</g>
	<g>
	</g>
	<g>
	</g>
	<g>
	</g>
	<g>
	</g>
	<g>
	</g>
	<g>
	</g>
	<g>
	</g>
	<g>
	</g>
	<g>
	</g>
</g>
<path d="M57,59h2c0.553,0,1-0.448,1-1V19c0-7.168-5.832-13-13-13h-5.28l-1.772-5.316C39.812,0.275,39.431,0,39,0H25
	c-0.431,0-0.812,0.275-0.948,0.684L22.28,6H17C9.832,6,4,11.832,4,19v39c0,0.552,0.447,1,1,1h2v2c0,1.654,1.346,3,3,3h5
	c1.654,0,3-1.346,3-3v-2h28v2c0,1.654,1.346,3,3,3h5c1.654,0,3-1.346,3-3V59z M25.721,2h12.559l1.333,4H37V4h-2v2h-2V4h-2v2h-2V4h-2
	v2h-2.612L25.721,2z M6,19c0-6.065,4.935-11,11-11h6h18h6c6.065,0,11,4.935,11,11v38h-2h-9h-8v-2h6v-2H19v2h6v2h-8H8H6V19z M37,55v2
	H27v-2H37z M16,61c0,0.551-0.448,1-1,1h-5c-0.552,0-1-0.449-1-1v-2h7V61z M55,61c0,0.551-0.448,1-1,1h-5c-0.552,0-1-0.449-1-1v-2h7
	V61z"/>
<path d="M9,36h46c0.553,0,1-0.448,1-1V19c0-4.962-4.037-9-9-9H17c-4.963,0-9,4.038-9,9v16C8,35.552,8.447,36,9,36z M10,19
	c0-3.86,3.141-7,7-7h30c3.859,0,7,3.14,7,7v15H35.414l2-2H52v-2H37c-0.266,0-0.52,0.105-0.707,0.293L32.586,34H14.414l2-2H32v-2H16
	c-0.266,0-0.52,0.105-0.707,0.293L11.586,34H10V19z"/>
<path d="M13,54c2.757,0,5-2.243,5-5s-2.243-5-5-5s-5,2.243-5,5S10.243,54,13,54z M13,46c1.654,0,3,1.346,3,3s-1.346,3-3,3
	s-3-1.346-3-3S11.346,46,13,46z"/>
<path d="M51,44c-2.757,0-5,2.243-5,5s2.243,5,5,5s5-2.243,5-5S53.757,44,51,44z M51,52c-1.654,0-3-1.346-3-3s1.346-3,3-3
	s3,1.346,3,3S52.654,52,51,52z"/>
<rect x="17.343" y="21" transform="matrix(0.7071 -0.7071 0.7071 0.7071 -8.8198 22.7071)" width="11.314" height="2"/>
<rect x="33.343" y="21" transform="matrix(0.7071 -0.7071 0.7071 0.7071 -4.1335 34.0208)" width="11.314" height="2"/>
<rect x="24.964" y="23.5" transform="matrix(0.7071 -0.7071 0.7071 0.7071 -8.9767 27.3284)" width="7.071" height="2"/>
<rect x="32.379" y="17.5" transform="matrix(0.7071 -0.7071 0.7071 0.7071 -2.9767 29.8137)" width="4.243" height="2"/>
<rect x="21" y="39" width="22" height="2"/>
<rect x="24" y="43" width="16" height="2"/>
<rect x="27" y="47" width="10" height="2"/>
</svg>
